<svg xmlns="http://www.w3.org/2000/svg" fill="none" viewBox="0 0 175 104">
  <path d="M55.195 5.063C58.907 2.618 64.645.644 69.493.145c2.828-.292 8.19-.125 11.082.343 4.62.749 9.523 2.553 13.7 5.041 7.245 4.316 15.904 13.116 15.904 21.087.187.757.317 9.85.415 28.942l.142 26.136c0 10.214 11.695 4.63 16.307-.677v1.06c-.011 2.528-1.299 5.606-3.651 8.727-4.715 6.258-12.372 9.883-20.873 9.883-6.721 0-12.546-2.13-16.764-6.131-2.932-2.782-4.638-5.523-5.623-9.037-.52-1.858-.528-2.193-.674-31.065-.144-28.466-.16-29.242-.66-31.395a49.454 49.454 0 00-1.297-4.414c-2.441-6.88-6.238-10.723-11.527-11.668-6.127-1.095-12.896 3.98-17.203 12.894l-1.185 2.453.002 31.026c.001 17.27.105 32.353.234 34.017.363 4.66 1.264 6.567 3.804 8.048 1.33.776 2.774 1.128 5.396 1.314l2.207.157v2.943H5.024l-.144-2.993 2.402-.14c5.714-.333 8.245-2.545 8.903-7.781.178-1.414.24-13.138.192-36.423 0 0-.07-18.99-.07-31.159C16.307 5.53 0 20.813 0 20.813s.742-3.854 1.593-5.598c2.527-5.185 8.1-9.835 14.233-11.88 3.56-1.187 6.32-1.568 10.292-1.42 8.953.331 16.283 4.282 19.295 10.398.419.851.784 1.548.81 1.548.028 0 .776-.916 1.663-2.036 2.167-2.734 4.574-4.961 7.31-6.763z" fill="#F8D631"/>
  <path d="M119.437 98.51c-3.711 2.445-9.449 4.419-14.297 4.918-2.828.292-8.19.125-11.083-.343-4.62-.749-9.523-2.553-13.7-5.041-8.424-5.019-16.728-14.342-16.728-24.497V23.43c0-13.182-10.649-7.925-16.043-1.106l.004-.828c.01-2.528 1.298-5.606 3.65-8.727 4.715-6.258 12.373-9.884 20.873-9.884 6.722 0 12.547 2.131 16.764 6.132 2.933 2.782 4.638 5.523 5.623 9.037.521 1.857.528 2.192.674 31.065.144 28.466.16 29.241.66 31.394a49.631 49.631 0 001.297 4.415c2.441 6.88 6.238 10.722 11.528 11.668 6.126 1.094 12.895-3.98 17.203-12.894l1.184-2.453s-.118-55.956-.022-57.977c.095-2.02-.664-4.467-.664-4.467-3.589-7.79-12.107-.07-15.933 3.445v-1.22c.011-2.528 1.543-5.88 3.895-9 4.716-6.258 12.418-9.484 20.918-9.484 6.722 0 12.547 2.131 16.765 6.132 2.932 2.782 6.137 7.049 6.137 14.205s-.089 46.683-.089 60.221c0 4.513 3.538 9.92 14.738.559l1.84-1.748s0 3.504-1.591 6.443c-2.528 5.183-8.1 9.834-14.234 11.879-3.56 1.187-6.32 1.568-10.291 1.42-8.954-.331-16.284-4.282-19.295-10.398-.419-.852-.784-1.548-.812-1.548-.027 0-.775.916-1.662 2.036-2.167 2.734-4.573 4.96-7.309 6.763z" fill="#B8C9D3"/>
</svg>
