<svg xmlns="http://www.w3.org/2000/svg" fill="none" viewBox="0 0 113 67">
  <path d="M35.605 3.266C38 1.689 41.701.416 44.828.093c1.825-.188 5.284-.08 7.15.222 2.98.483 6.143 1.647 8.837 3.252 4.674 2.784 10.26 8.46 10.26 13.602.12.489.204 6.354.267 18.67l.092 16.86c0 6.589 7.544 2.987 10.519-.436v.683c-.007 1.631-.838 3.616-2.355 5.63-3.042 4.037-7.981 6.376-13.465 6.376-4.336 0-8.093-1.375-10.814-3.956-1.892-1.794-2.992-3.563-3.627-5.83-.336-1.197-.34-1.414-.435-20.039-.093-18.363-.104-18.863-.426-20.252a31.897 31.897 0 00-.836-2.848C48.42 7.59 45.97 5.111 42.558 4.501c-3.952-.706-8.318 2.567-11.097 8.317l-.764 1.583.001 20.014c0 11.14.068 20.87.151 21.944.234 3.006.816 4.236 2.454 5.191.858.501 1.79.728 3.48.848l1.425.101v1.899H3.24l-.093-1.931 1.55-.09c3.686-.215 5.318-1.642 5.743-5.02.114-.912.154-8.474.123-23.495 0 0-.045-12.25-.045-20.1C10.52 3.567 0 13.426 0 13.426s.478-2.486 1.027-3.611C2.658 6.47 6.252 3.47 10.21 2.152c2.297-.766 4.077-1.011 6.639-.916 5.776.214 10.504 2.762 12.447 6.708.27.549.506.998.523.998.018 0 .5-.59 1.073-1.313 1.398-1.764 2.95-3.2 4.714-4.363z" fill="#fff"/>
  <path d="M77.047 63.547c-2.394 1.577-6.095 2.85-9.223 3.173-1.824.188-5.283.08-7.149-.222-2.98-.483-6.143-1.647-8.838-3.252-5.434-3.237-10.79-9.251-10.79-15.802v-32.33c0-8.504-6.87-5.112-10.35-.713l.003-.534c.007-1.631.837-3.617 2.354-5.63C36.096 4.2 41.036 1.86 46.52 1.86c4.336 0 8.094 1.375 10.815 3.956 1.891 1.794 2.991 3.563 3.627 5.83.336 1.197.34 1.413.435 20.039.093 18.362.103 18.863.426 20.252.182.783.558 2.064.836 2.848 1.575 4.437 4.024 6.916 7.436 7.526 3.952.706 8.319-2.567 11.097-8.317l.765-1.583s-.077-36.096-.015-37.4c.061-1.303-.428-2.881-.428-2.881-2.315-5.026-7.81-.045-10.278 2.222v-.787c.007-1.63.995-3.793 2.513-5.806 3.041-4.037 8.01-6.117 13.493-6.117 4.336 0 8.094 1.374 10.815 3.955 1.891 1.794 3.959 4.547 3.959 9.163 0 4.617-.058 30.115-.058 38.848 0 2.91 2.283 6.399 9.508.36l1.187-1.127s0 2.26-1.027 4.156c-1.631 3.344-5.225 6.344-9.181 7.663-2.297.766-4.078 1.011-6.64.916-5.775-.214-10.504-2.762-12.446-6.708-.27-.549-.506-.998-.524-.998-.017 0-.5.59-1.072 1.313-1.398 1.764-2.95 3.2-4.715 4.363z" fill="#F8D631"/>
</svg>
